<?xml version="1.0" standalone="no"?>
<!DOCTYPE svg PUBLIC "-//W3C//DTD SVG 20010904//EN"
 "http://www.w3.org/TR/2001/REC-SVG-20010904/DTD/svg10.dtd">
<svg version="1.0" xmlns="http://www.w3.org/2000/svg"
 width="367.000000pt" height="367.000000pt" viewBox="0 0 367.000000 367.000000"
 preserveAspectRatio="xMidYMid meet">
<metadata>
Created by potrace 1.11, written by Peter Selinger 2001-2013
</metadata>
<g transform="translate(0.000000,367.000000) scale(0.100000,-0.100000)"
fill="#000000" stroke="none">
<path d="M0 1835 l0 -1835 1835 0 1835 0 0 1835 0 1835 -1835 0 -1835 0 0
-1835z m3650 0 l0 -1815 -1815 0 -1815 0 0 1815 0 1815 1815 0 1815 0 0 -1815z"/>
<path d="M1920 3050 c-28 -9 -63 -28 -78 -41 -48 -43 -52 -53 -23 -68 15 -8
25 -5 47 15 28 25 46 34 92 49 22 6 23 5 18 -27 -5 -29 -59 -324 -71 -388 -2
-14 -7 -36 -9 -50 -50 -264 -71 -360 -78 -360 -4 0 -8 4 -8 10 0 20 -60 76
-105 99 -33 16 -71 25 -126 28 -165 11 -291 -38 -409 -156 -130 -132 -188
-283 -196 -511 -2 -72 0 -140 7 -160 5 -19 12 -42 14 -51 17 -78 105 -189 176
-223 101 -48 255 -53 342 -11 54 25 126 85 145 120 17 30 15 2 -7 -106 -11
-52 -22 -112 -26 -134 -4 -22 -8 -47 -10 -55 -2 -8 -4 -23 -4 -32 -1 -14 -12
-12 -75 17 -187 85 -366 115 -484 80 -93 -28 -143 -94 -143 -189 0 -62 10 -91
48 -132 109 -120 439 -138 663 -37 44 20 130 75 152 97 13 13 25 15 55 8 53
-12 164 -6 204 11 34 14 35 13 83 -30 62 -55 142 -81 250 -81 132 0 225 38
311 125 73 74 89 118 89 248 -1 129 -15 175 -94 300 -55 86 -91 187 -93 260
-2 40 -5 45 -25 45 -13 0 -30 -6 -37 -14 -19 -19 -55 -129 -55 -169 0 -27 -8
-40 -47 -73 -25 -21 -51 -44 -57 -49 -45 -44 -178 -119 -256 -145 -74 -25 -93
-26 -86 -2 3 9 8 33 11 52 7 42 23 135 30 170 3 14 16 86 29 160 14 74 28 149
31 165 3 17 7 39 9 50 2 11 22 124 45 250 23 127 44 241 46 255 2 14 9 50 15
80 6 30 13 69 15 85 3 17 9 53 15 80 41 209 34 295 -30 369 -62 70 -206 101
-310 66z m-290 -794 c19 -3 81 -35 95 -50 54 -55 79 -178 56 -281 -5 -22 -12
-56 -15 -75 -3 -19 -8 -46 -11 -60 -3 -14 -8 -45 -11 -70 -15 -107 -83 -244
-166 -331 -77 -82 -128 -104 -198 -87 -63 16 -74 41 -74 167 -1 185 24 347 79
531 1 3 5 19 10 35 9 35 70 163 88 185 34 43 65 51 147 36z m844 -878 c4 -24
7 -44 7 -45 0 -2 4 -17 10 -35 11 -41 23 -139 22 -198 -1 -154 -56 -266 -143
-290 -79 -22 -180 -3 -217 42 -9 11 -2 12 40 10 63 -4 112 24 139 78 37 73 14
164 -52 208 -65 44 -169 21 -217 -48 -19 -28 -32 -106 -23 -145 7 -33 6 -34
-34 -51 -37 -15 -151 -22 -163 -10 -2 2 12 25 32 52 42 55 78 122 95 180 11
38 16 42 69 59 130 40 323 147 385 213 17 17 33 29 37 27 3 -3 9 -24 13 -47z
m-1182 -333 c79 -14 275 -98 285 -122 6 -16 -33 -80 -72 -116 -61 -57 -109
-71 -235 -72 -123 0 -176 11 -230 47 -53 37 -73 70 -72 123 2 79 57 136 142
148 31 4 136 0 182 -8z"/>
</g>
</svg>
